{
	"asset":{
		"generator":"Khronos glTF Blender I/O v4.0.44",
		"version":"2.0"
	},
	"scene":0,
	"scenes":[
		{
			"name":"Scene",
			"nodes":[
				0
			]
		}
	],
	"nodes":[
		{
			"mesh":0,
			"name":"Animated Shirt",
			"scale":[
				4.338108062744141,
				4.338108062744141,
				4.338108062744141
			],
			"translation":[
				0.15015189349651337,
				-3.2259204387664795,
				0.9255152940750122
			]
		}
	],
	"materials":[
		{
			"doubleSided":true,
			"name":"Shirt Texture",
			"pbrMetallicRoughness":{
				"baseColorTexture":{
					"index":0
				},
				"metallicFactor":0.24409449100494385,
				"roughnessFactor":0.913385808467865
			}
		}
	],
	"meshes":[
		{
			"name":"Shirt",
			"primitives":[
				{
					"attributes":{
						"POSITION":0,
						"NORMAL":1,
						"TEXCOORD_0":2
					},
					"indices":3,
					"material":0
				}
			]
		}
	],
	"textures":[
		{
			"sampler":0,
			"source":0
		}
	],
	"images":[
		{
			"mimeType":"image/png",
			"name":"layer",
			"uri":"layer.png"
		}
	],
	"accessors":[
		{
			"bufferView":0,
			"componentType":5126,
			"count":617014,
			"max":[
				0.33299267292022705,
				0.34621667861938477,
				0.23039111495018005
			],
			"min":[
				-0.34940198063850403,
				-0.3865998387336731,
				-0.14541122317314148
			],
			"type":"VEC3"
		},
		{
			"bufferView":1,
			"componentType":5126,
			"count":617014,
			"type":"VEC3"
		},
		{
			"bufferView":2,
			"componentType":5126,
			"count":617014,
			"type":"VEC2"
		},
		{
			"bufferView":3,
			"componentType":5125,
			"count":3234636,
			"type":"SCALAR"
		}
	],
	"bufferViews":[
		{
			"buffer":0,
			"byteLength":7404168,
			"byteOffset":0,
			"target":34962
		},
		{
			"buffer":0,
			"byteLength":7404168,
			"byteOffset":7404168,
			"target":34962
		},
		{
			"buffer":0,
			"byteLength":4936112,
			"byteOffset":14808336,
			"target":34962
		},
		{
			"buffer":0,
			"byteLength":12938544,
			"byteOffset":19744448,
			"target":34963
		}
	],
	"samplers":[
		{
			"magFilter":9729,
			"minFilter":9987
		}
	],
	"buffers":[
		{
			"byteLength":32682992,
			"uri":"Animated%20Tshirt%20Mockup%20BrockCreative.bin"
		}
	]
}
